<svg xmlns="http://www.w3.org/2000/svg" viewBox="0 0 24 24" width="48" height="48" fill="#006738">
  <circle cx="12" cy="12" r="10" fill="#e6f7ef" />
  <path d="M12 7c-2.48 0-4.5 2.02-4.5 4.5 0 .34.04.67.11.98.34-.06.69-.1 1.05-.1 1.11 0 2.08.29 2.84.8.76-.51 1.74-.8 2.84-.8.36 0 .71.04 1.05.1.07-.31.11-.64.11-.98 0-2.48-2.02-4.5-4.5-4.5zm0 8c-1.38 0-2.5-1.12-2.5-2.5 0-.28.05-.54.13-.79.33.7.95 1.19 1.7 1.26.22.03.44.03.66 0 .76-.07 1.38-.56 1.7-1.26.08.25.13.51.13.79 0 1.38-1.12 2.5-2.5 2.5z"/>
  <circle cx="9" cy="10" r="1"/>
  <circle cx="15" cy="10" r="1"/>
</svg>